HIERARCHY
ROOT SpineBase
{
  OFFSET 0.000000 0.000000 0.000000
  CHANNELS 6 Xposition Yposition Zposition Zrotation Xrotation Yrotation
  JOINT SpineMid
  {
    OFFSET 0.000000 31.459709 0.000000
    CHANNELS 3 Zrotation Xrotation Yrotation
    JOINT SpineShoulder
    {
      OFFSET 0.203056 23.428719 -0.726412
      CHANNELS 3 Zrotation Xrotation Yrotation
      JOINT Neck
      {
        OFFSET 0.131954 7.758406 -0.541927
        CHANNELS 3 Zrotation Xrotation Yrotation
        JOINT Head
        {
          OFFSET -4.273282 12.799099 1.381107
          CHANNELS 3 Zrotation Xrotation Yrotation
          End Site
          {
            OFFSET 0 0 0
          }
        }
      }
      JOINT ShoulderLeft
      {
        OFFSET -16.308230 -4.598839 7.615104
        CHANNELS 3 Zrotation Xrotation Yrotation
        JOINT ElbowLeft
        {
          OFFSET -1.862193 -28.317370 2.527108
          CHANNELS 3 Zrotation Xrotation Yrotation
          JOINT WristLeft
          {
            OFFSET 1.493891 -21.238278 -5.091384
            CHANNELS 3 Zrotation Xrotation Yrotation
            JOINT HandLeft
            {
              OFFSET 1.241620 -7.790393 -0.530105
              CHANNELS 3 Zrotation Xrotation Yrotation
              JOINT HandTipLeft
              {
                OFFSET 1.059649 -7.680120 -1.461473
                CHANNELS 3 Zrotation Xrotation Yrotation
                End Site
                {
                  OFFSET 0 0 0
                }
              }
              JOINT ThumbLeft
              {
                OFFSET 3.345828 -0.314712 -4.897169
                CHANNELS 3 Zrotation Xrotation Yrotation
                End Site
                {
                  OFFSET 0 0 0
                }
              }
            }
          }
        }
      }
      JOINT ShoulderRight
      {
        OFFSET 13.457369 -3.341454 -8.089061
        CHANNELS 3 Zrotation Xrotation Yrotation
        JOINT ElbowRight
        {
          OFFSET 8.121676 -26.713643 -3.871033
          CHANNELS 3 Zrotation Xrotation Yrotation
          JOINT WristRight
          {
            OFFSET 0.650070 -20.904067 -5.748608
            CHANNELS 3 Zrotation Xrotation Yrotation
            JOINT HandRight
            {
              OFFSET -1.122430 -6.838877 -0.805798
              CHANNELS 3 Zrotation Xrotation Yrotation
              JOINT HandTipRight
              {
                OFFSET -0.956204 -7.641722 -0.230236
                CHANNELS 3 Zrotation Xrotation Yrotation
                End Site
                {
                  OFFSET 0 0 0
                }
              }
              JOINT ThumbRight
              {
                OFFSET 2.008262 -2.512444 -1.805088
                CHANNELS 3 Zrotation Xrotation Yrotation
                End Site
                {
                  OFFSET 0 0 0
                }
              }
            }
          }
        }
      }
    }
  }
  JOINT HipLeft
  {
    OFFSET -5.813470 0.140420 -0.329609
    CHANNELS 3 Zrotation Xrotation Yrotation
    JOINT KneeLeft
    {
      OFFSET 2.673115 -37.830640 -2.247088
      CHANNELS 3 Zrotation Xrotation Yrotation
      JOINT AnkleLeft
      {
        OFFSET 8.031262 -37.914274 9.951290
        CHANNELS 3 Zrotation Xrotation Yrotation
        JOINT FootLeft
        {
          OFFSET -0.028099 -7.940726 -5.690686
          CHANNELS 3 Zrotation Xrotation Yrotation
          End Site
          {
            OFFSET 0 0 0
          }
        }
      }
    }
  }
  JOINT HipRight
  {
    OFFSET 6.273912 1.429074 -6.034828
    CHANNELS 3 Zrotation Xrotation Yrotation
    JOINT KneeRight
    {
      OFFSET 8.151783 -36.328386 -0.869980
      CHANNELS 3 Zrotation Xrotation Yrotation
      JOINT AnkleRight
      {
        OFFSET 5.213156 -37.315515 8.652421
        CHANNELS 3 Zrotation Xrotation Yrotation
        JOINT FootRight
        {
          OFFSET -5.090663 -7.408061 -0.939043
          CHANNELS 3 Zrotation Xrotation Yrotation
          End Site
          {
            OFFSET 0 0 0
          }
        }
      }
    }
  }
}
MOTION
Frames: 13
Frame Time: 0.033333
-24.976518 83.596455 340.635719 -0.000000 0.000000 25.267212 -0.000000 0.000000 -25.267212 -0.000000 0.000000 0.000000 -0.000000 0.000000 0.000000 0.000000 0.000000 0.000000 -0.000000 0.000000 0.000000 -0.000000 0.000000 0.000000 -0.000000 0.000000 0.000000 -0.000000 0.000000 0.000000 0.000000 0.000000 0.000000 0.000000 0.000000 0.000000 -0.000000 0.000000 0.000000 -0.000000 0.000000 0.000000 -0.000000 0.000000 0.000000 -0.000000 0.000000 0.000000 0.000000 0.000000 0.000000 0.000000 0.000000 0.000000 -0.000000 0.000000 -25.267212 -0.000000 0.000000 0.000000 -0.000000 0.000000 0.000000 0.000000 0.000000 0.000000 -0.000000 0.000000 -25.267212 -0.000000 0.000000 0.000000 -0.000000 0.000000 0.000000 0.000000 0.000000 0.000000
-24.994983 83.641875 340.307801 -0.139850 0.379012 24.847641 -0.032358 -0.402692 -24.847292 -0.000000 0.000000 0.000000 -0.000000 0.000000 0.000000 0.000000 0.000000 0.000000 -1.084155 0.692259 -0.135719 0.526922 -1.542707 0.212647 -5.397388 1.070161 0.465005 4.995360 -3.898523 -0.793001 0.000000 0.000000 0.000000 0.000000 0.000000 0.000000 -0.000000 0.000000 0.000000 -0.000000 0.000000 0.000000 0.371648 0.861360 -0.187890 0.806099 -0.741198 0.148595 0.000000 0.000000 0.000000 0.000000 0.000000 0.000000 -0.902022 -2.100564 -24.996650 0.461182 2.684406 0.381280 -2.943657 3.626303 1.568949 0.000000 0.000000 0.000000 -0.032358 -0.402692 -24.847292 -0.844479 -0.815295 -0.315529 7.891492 8.133079 -6.377179 0.000000 0.000000 0.000000
-25.032330 83.682181 340.010511 -0.245556 0.717288 24.523617 -0.074316 -0.754503 -24.522569 -0.000000 0.000000 0.000000 -0.000000 0.000000 0.000000 0.000000 0.000000 0.000000 -2.055868 1.315858 -0.246377 0.971315 -2.795112 0.413736 -9.796076 2.127030 1.029682 9.005907 -7.365148 -1.496115 0.000000 0.000000 0.000000 0.000000 0.000000 0.000000 -0.000000 0.000000 0.000000 0.420157 1.125858 -0.084421 0.108278 0.265049 -0.210242 1.650928 -1.073445 0.226488 0.000000 0.000000 0.000000 0.000000 0.000000 0.000000 -1.668753 -3.991874 -24.837852 0.826234 5.082956 0.698250 -5.269506 6.107070 2.773187 0.000000 0.000000 0.000000 -0.074316 -0.754503 -24.522569 -1.510807 -1.470069 -0.574449 15.221285 14.188711 -12.648677 0.000000 0.000000 0.000000
-25.088559 83.717373 339.743851 -0.317091 1.014750 24.292942 -0.128452 -1.055346 -24.291317 -0.000000 0.000000 0.000000 -0.279599 1.093502 0.397854 0.000000 0.000000 0.000000 -2.915100 1.869568 -0.335515 1.326571 -3.764489 0.605835 -13.188798 3.185445 1.624199 12.066427 -10.345409 -2.071012 0.000000 0.000000 0.000000 0.000000 0.000000 0.000000 -0.886950 0.473702 0.276700 1.434323 1.044999 -0.373418 -0.072315 0.067550 -0.216486 2.520232 -1.003112 0.215449 0.000000 0.000000 0.000000 0.000000 0.000000 0.000000 -2.312796 -5.667746 -24.776087 1.096712 7.188521 0.960664 -6.955021 7.558129 3.567407 0.000000 0.000000 0.000000 -0.568560 -0.105566 -24.122943 -1.237812 -2.668933 -0.972687 21.348214 18.225902 -18.014585 0.000000 0.000000 0.000000
-25.163668 83.747451 339.507818 -0.354440 1.271349 24.153676 0.212486 -0.500924 -24.151969 0.421037 0.054489 0.025798 -0.791812 0.533417 0.510725 0.000000 0.000000 0.000000 -4.125077 1.400382 -0.487489 1.587090 -4.456161 0.791292 -15.613959 4.268640 2.198347 14.252093 -12.811491 -2.494085 0.000000 0.000000 0.000000 0.000000 0.000000 0.000000 -1.550576 -0.353564 0.308244 1.697800 1.204230 -0.447903 -0.412877 -0.349880 -0.159356 3.407503 -0.530753 0.099167 0.000000 0.000000 0.000000 0.000000 0.000000 0.000000 -2.844327 -7.125086 -24.799285 1.273171 8.996616 1.176946 -8.004893 8.082572 3.941527 0.000000 0.000000 0.000000 -0.727631 -0.240485 -23.967566 -1.481873 -3.136162 -1.153089 25.953121 20.685209 -22.050408 0.000000 0.000000 0.000000
-25.257659 83.772415 339.302415 -0.357601 1.487058 24.104166 0.261674 -0.535187 -24.100043 0.479125 0.082751 0.030948 -0.929392 0.713051 0.644259 0.000000 0.000000 0.000000 -4.872090 1.582096 -0.576847 1.748098 -4.873353 0.972470 -17.119360 5.403379 2.717849 15.638858 -14.753844 -2.753703 0.000000 0.000000 0.000000 0.000000 0.000000 0.000000 -1.813312 -0.472948 0.352736 1.852580 1.269268 -0.497235 -0.920383 -0.996371 -0.040985 4.314808 0.349552 -0.136721 0.000000 0.000000 0.000000 0.000000 0.000000 0.000000 -3.271273 -8.363088 -24.897771 1.355523 10.504766 1.354180 -8.433596 7.742365 3.903997 0.000000 0.000000 0.000000 -0.868801 -0.429393 -23.923327 -1.666519 -3.413524 -1.260988 28.976952 22.007988 -24.630620 0.000000 0.000000 0.000000
-25.347751 83.799927 339.122691 -0.281586 1.716175 24.124653 0.313188 -0.536678 -24.117096 0.539785 0.149149 0.037986 -1.097292 1.006994 0.833680 0.000000 0.000000 0.000000 -5.795935 1.525431 -0.685106 1.719380 -4.592646 1.257235 -18.427155 6.881884 3.300257 16.590409 -15.235180 -2.601865 0.000000 0.000000 0.000000 0.000000 0.000000 0.000000 -2.080834 -0.676460 0.379994 2.041930 1.254765 -0.566910 -2.185356 -2.427199 0.286753 5.990624 1.448033 -0.581756 0.000000 0.000000 0.000000 0.000000 0.000000 0.000000 -3.770839 -9.646006 -25.084322 1.414202 12.024066 1.526420 -8.369232 5.148379 3.410677 0.000000 0.000000 0.000000 -1.102263 -0.647295 -23.964074 -1.840403 -3.615453 -1.347458 30.907981 22.216301 -25.597550 0.000000 0.000000 0.000000
-25.450032 83.814992 338.954831 -0.173840 1.885150 24.246673 0.358494 -0.503331 -24.236414 0.571651 0.203090 0.043584 -1.213391 1.227083 0.980461 0.000000 0.000000 0.000000 -6.455935 1.620498 -0.773294 1.568100 -4.548770 1.486626 -18.448195 8.512780 3.797312 17.046096 -15.623638 -2.392740 0.000000 0.000000 0.000000 0.000000 0.000000 0.000000 -2.269573 -0.804819 0.410216 1.892121 1.028790 -0.565678 -3.155945 -3.458458 0.496015 7.181281 4.181316 -1.289440 0.000000 0.000000 0.000000 0.000000 0.000000 0.000000 -4.135980 -10.587733 -25.333897 1.352576 13.125608 1.656094 -6.938408 1.282923 2.051081 0.000000 0.000000 0.000000 -1.325570 -0.999024 -24.150781 -1.970359 -3.470549 -1.319390 30.745524 21.889265 -25.026060 0.000000 0.000000 0.000000
-25.564007 83.820366 338.832277 -0.031234 1.969662 24.435636 0.382400 -0.429271 -24.424413 0.557527 0.238819 0.045931 -1.288858 1.449059 1.106967 0.000000 0.000000 0.000000 -6.828035 1.699476 -0.829297 1.307341 -4.302509 1.672036 -16.827361 10.262390 4.070953 15.775637 -17.036055 -2.391461 0.000000 0.000000 0.000000 0.000000 0.000000 0.000000 -2.460933 -0.917807 0.432480 1.693400 0.745720 -0.532366 -3.686630 -5.181688 0.760062 7.951424 6.053808 -1.910242 0.000000 0.000000 0.000000 0.000000 0.000000 0.000000 -4.285706 -11.038579 -25.581570 1.090871 13.566622 1.719876 -4.175544 -4.282836 0.043337 0.000000 0.000000 0.000000 -0.786610 -1.806099 -24.447499 -2.867338 -2.991689 -1.154940 29.264983 21.322868 -23.688574 0.000000 0.000000 0.000000
-25.776262 83.810475 338.781744 0.025001 1.930524 24.714723 0.428376 -0.320176 -24.703879 0.519162 0.249037 0.044137 -1.192241 1.639396 1.188365 0.000000 0.000000 0.000000 -6.723533 1.764595 -0.830769 1.159513 -3.890015 1.728917 -13.285868 10.527063 3.519102 12.596498 -16.823184 -2.362701 0.000000 0.000000 0.000000 0.000000 0.000000 0.000000 -2.555508 -1.006318 0.440158 1.445433 0.474867 -0.464528 -4.213977 -6.665998 0.975820 7.888879 7.275878 -2.310402 0.000000 0.000000 0.000000 0.000000 0.000000 0.000000 -4.029507 -11.017772 -25.839167 0.694307 13.323929 1.731975 -4.449183 -1.508764 0.385388 0.000000 0.000000 0.000000 -0.830125 -1.743173 -24.727773 -2.471052 -2.902633 -1.038271 26.384634 20.321125 -21.502465 0.000000 0.000000 0.000000
-26.099785 83.786861 338.753265 -0.018865 1.835247 25.014186 0.469542 -0.224367 -25.004942 0.482278 0.248290 0.039314 -1.023717 1.809276 1.246780 0.000000 0.000000 0.000000 -6.331279 1.765843 -0.796346 1.315692 -3.390036 1.662466 -9.993068 9.366957 2.666472 8.264571 -17.456659 -2.695390 0.000000 0.000000 0.000000 0.000000 0.000000 0.000000 -2.531701 -1.111604 0.424521 1.123082 0.257020 -0.353348 -4.806701 -7.622160 1.109554 8.730503 9.535854 -2.942795 0.000000 0.000000 0.000000 0.000000 0.000000 0.000000 -3.700637 -11.187560 -26.140452 0.358136 13.493837 1.811938 -3.164369 -2.572368 -0.563518 0.000000 0.000000 0.000000 -0.759137 -1.671036 -25.024955 -2.330233 -2.860996 -0.995406 25.698997 19.754409 -20.728339 0.000000 0.000000 0.000000
-26.472462 83.750257 338.729143 -0.107873 1.712347 25.276078 0.466867 -0.151353 -25.270148 0.429356 0.195706 0.031895 -0.811518 2.084683 1.312704 0.000000 0.000000 0.000000 -5.754476 1.751666 -0.733009 1.675581 -2.872064 1.508328 -6.299662 7.021211 1.612648 3.037491 -15.486343 -2.468020 0.000000 0.000000 0.000000 0.000000 0.000000 0.000000 -2.413684 -1.154863 0.400734 0.848967 0.107485 -0.238195 -5.190230 -8.413660 1.213222 8.770481 9.253610 -3.033502 0.000000 0.000000 0.000000 0.000000 0.000000 0.000000 -3.289262 -11.306116 -26.393836 0.121659 13.577821 1.887844 -1.121982 -4.865216 -2.084215 0.000000 0.000000 0.000000 -0.633741 -1.594441 -25.283285 -2.265026 -2.786546 -0.966926 26.345038 19.440034 -20.849499 0.000000 0.000000 0.000000
-26.861252 83.699998 338.708848 -0.253597 1.585996 25.438820 0.449371 -0.116054 -25.436598 0.405880 0.149533 0.024862 -0.482108 2.448359 1.385320 0.000000 0.000000 0.000000 -5.155864 1.785299 -0.666418 2.462721 -2.809417 1.229964 -3.197835 3.921189 0.711373 -2.205697 -12.362214 -1.706327 0.000000 0.000000 0.000000 0.000000 0.000000 0.000000 -2.252757 -1.196072 0.365657 0.555687 0.048632 -0.106521 -5.266196 -9.103318 1.274703 8.688318 9.574498 -3.171974 0.000000 0.000000 0.000000 0.000000 0.000000 0.000000 -2.838749 -11.512277 -26.555515 -0.068371 13.751253 1.973684 0.599144 -8.381377 -3.397641 0.000000 0.000000 0.000000 0.106109 -2.597259 -25.604092 -3.287214 -2.090332 -0.768851 27.689133 19.481073 -21.524062 0.000000 0.000000 0.000000
